<svg xmlns="http://www.w3.org/2000/svg" width="24" height="24" viewBox="0 0 24 24">
  <path d="M7 19H6C6 19.3263 6.15921 19.6321 6.42654 19.8192L7 19ZM12 22.5L11.4265 23.3192C11.7709 23.5603 12.2291 23.5603 12.5735 23.3192L12 22.5ZM17 19L17.5735 19.8192C17.8408 19.6321 18 19.3263 18 19H17ZM17 12.9782L16.4608 12.136L16 12.431V12.9782H17ZM10 13C9.44772 13 9 13.4477 9 14C9 14.5523 9.44772 15 10 15V13ZM11 15C11.5523 15 12 14.5523 12 14C12 13.4477 11.5523 13 11 13V15ZM10 16.5C9.44772 16.5 9 16.9477 9 17.5C9 18.0523 9.44772 18.5 10 18.5V16.5ZM11 18.5C11.5523 18.5 12 18.0523 12 17.5C12 16.9477 11.5523 16.5 11 16.5V18.5ZM16 7.5C16 8.88071 14.8807 10 13.5 10V12C15.9853 12 18 9.98528 18 7.5H16ZM13.5 10C12.1193 10 11 8.88071 11 7.5H9C9 9.98528 11.0147 12 13.5 12V10ZM11 7.5C11 6.11929 12.1193 5 13.5 5V3C11.0147 3 9 5.01472 9 7.5H11ZM13.5 5C14.8807 5 16 6.11929 16 7.5H18C18 5.01472 15.9853 3 13.5 3V5ZM8 7.5C8 4.46243 10.4624 2 13.5 2V0C9.35786 0 6 3.35786 6 7.5H8ZM13.5 2C16.5376 2 19 4.46243 19 7.5H21C21 3.35786 17.6421 0 13.5 0V2ZM6 7.5V19H8V7.5H6ZM6.42654 19.8192L11.4265 23.3192L12.5735 21.6808L7.57346 18.1808L6.42654 19.8192ZM12.5735 23.3192L17.5735 19.8192L16.4265 18.1808L11.4265 21.6808L12.5735 23.3192ZM19 7.5C19 9.44612 17.99 11.157 16.4608 12.136L17.5392 13.8204C19.6183 12.4892 21 10.1563 21 7.5H19ZM18 19V12.9782H16V19H18ZM10 15H11V13H10V15ZM10 18.5H11V16.5H10V18.5Z" />
</svg>